<?xml version="1.0" encoding="UTF-8"?>
<svg id="_Слой_2" data-name="Слой 2" xmlns="http://www.w3.org/2000/svg" viewBox="0 0 404.6 226.31">
  <defs>
    <style>
      .cls-1 {
        fill: #f8f8f7;
      }
    </style>
  </defs>
  <g id="Layer_1" data-name="Layer 1">
    <g>
      <path class="cls-1" d="M56.07,142.33v10.2H24.06c-13.93-.07-24.06-10.89-24.06-24.2v-24.2h10.2v22.94c0,8.02,6.18,14.65,14.01,15.3h16.57v-38.23h10.2v38.23h5.1v-.02Z"/>
      <path class="cls-1" d="M76.44,114.29v8.95h24.8v10.2h-24.8v8.88h33.13v10.2h-43.33v-48.41h43.33v10.17h-33.13Z"/>
      <path class="cls-1" d="M129.95,181.83h22.93v-48.38h-22.93v48.38ZM152.88,226.31v-34.31h-22.93v34.31h-10.2V88.82h10.2v34.43h22.93v-34.43h10.2v137.49h-10.2Z"/>
      <path class="cls-1" d="M252.26,104.12h-25.47v48.41h10.2v-12.74h15.3c9.84,0,17.84-8,17.84-17.83s-8-17.84-17.84-17.84M252.29,129.59h-15.3v-15.3h15.3c4.21,0,7.64,3.42,7.64,7.64s-3.42,7.64-7.64,7.64v.02Z"/>
      <path class="cls-1" d="M219.15,211.13h10.2l-22.93-48.41h-10.2l-22.93,48.41h10.2l4.84-10.2h26.1l4.76,10.2h-.02ZM193.13,190.74l8.31-17.55,8.19,17.55h-16.49Z"/>
      <path class="cls-1" d="M272.66,162.73v19.1h-22.94v-19.1h-10.2v48.41h10.2v-19.1h22.94v19.1h10.2v-48.41h-10.2Z"/>
      <path class="cls-1" d="M293.08,188.2h-.02v-1.27c0,.43,0,.86.02,1.27Z"/>
      <path class="cls-1" d="M342.73,162.73v48.41h-10.2v-4.31c-4,2.87-8.88,4.57-14.17,4.62h-.02c-13.69-.07-24.59-10.34-25.26-23.25,0-.43-.02-.84-.02-1.27v-24.2h10.2v23.58c0,8.09,6.56,14.65,14.65,14.65s14.65-6.56,14.65-14.65v-23.58h10.2-.02Z"/>
      <path class="cls-1" d="M352.96,188.2h-.02v-1.27c0,.43,0,.86.02,1.27Z"/>
      <path class="cls-1" d="M402.61,162.73v48.41h-10.2v-4.31c-4,2.87-8.88,4.57-14.17,4.62h-.02c-13.69-.07-24.59-10.34-25.26-23.25,0-.43-.02-.84-.02-1.27v-24.2h10.2v23.58c0,8.09,6.56,14.65,14.65,14.65s14.65-6.56,14.65-14.65v-23.58h10.2-.02Z"/>
      <path class="cls-1" d="M387.31,152.53h-19.1v10.2h19.1v-10.2Z"/>
      <path class="cls-1" d="M109.58,196.48c0,7.88-6.23,14.32-14.01,14.63h-29.3v-10.2h29.3v-.05c2.15-.31,3.83-2.16,3.83-4.41s-1.65-4.09-3.83-4.41c0,0-1.7-.05-1.92-.05h-27.39v-10.2h27.39c2.47,0,4.45-1.99,4.45-4.45s-1.99-4.45-4.45-4.45h-27.39v-10.2h28.03c7.8.33,14.01,6.75,14.01,14.63,0,3.3-1.1,6.37-2.94,8.81,2.61,2.63,4.24,6.27,4.24,10.29"/>
      <path class="cls-1" d="M216.59,104.12h-43.31v10.17h16.57v38.23h10.17v-38.23h16.57v-10.17Z"/>
      <path class="cls-1" d="M69.86,0h-10.73l-22.58,41.66L14.24,0H.62v76.92h14.63V26.72l16.66,31.77h9.43l16.66-31.77v50.2h14.6V0h-2.75Z"/>
      <path class="cls-1" d="M128.06,0h-17.6l-28.75,76.92h15.27l5.96-15.49h32.63l5.96,15.49h15.25L128.06,0ZM106.78,48.82l12.43-33.97,12.52,33.97h-24.95Z"/>
      <path class="cls-1" d="M240.39,0v63.2h-21.98V0h-15.27v63.2h-21.98V0h-15.27l-.05,76.92h89.68l.05-76.92h-15.18Z"/>
      <path class="cls-1" d="M330.05,0h-12.28l-16.85,38.42L280.32,0h-16.49l29.71,54.85c-.55,1.01-1.08,1.94-1.63,2.75-1.32,2.08-2.75,3.52-4.29,4.5-1.53.89-3.4,1.32-5.51,1.32h-12.02v13.53h13.1c3.61,0,6.82-.43,9.34-1.22,2.63-.89,4.84-2.2,6.82-3.95,1.87-1.75,3.64-4.17,5.27-6.92,1.65-2.85,3.3-6.37,5.17-10.34L333.69,0h-3.64Z"/>
      <path class="cls-1" d="M404.6,76.92l-25.11-39.77L402.54,0h-17.74l-19.15,31.12h-9.55V0h-15.27v76.92h15.27v-32.08h10.1l20.42,32.08h17.98Z"/>
    </g>
  </g>
</svg>